<svg width="11" height="11" viewBox="0 0 11 11" fill="none" xmlns="http://www.w3.org/2000/svg">
<path d="M5.85399 0.75C6.07548 0.75 6.25859 0.914506 6.28758 1.12805L6.2916 1.18741L6.2923 5.41667H10.5233C10.7649 5.41667 10.9608 5.61255 10.9608 5.85417C10.9608 6.07566 10.7962 6.25871 10.5827 6.2877L10.5233 6.29167H6.2923L6.29347 10.5203C6.29353 10.7619 6.0977 10.9579 5.85609 10.9579C5.6346 10.9579 5.45149 10.7934 5.4225 10.5799L5.41847 10.5205L5.4173 6.29167H1.18872C0.947092 6.29167 0.751221 6.09578 0.751221 5.85417C0.751221 5.63267 0.915808 5.44962 1.12935 5.42063L1.18872 5.41667H5.4173L5.4166 1.18759C5.41655 0.945965 5.61237 0.75 5.85399 0.75Z" fill="#212121"/>
</svg>
