<?xml version="1.0" standalone="no"?>
<!DOCTYPE svg PUBLIC "-//W3C//DTD SVG 20010904//EN"
 "http://www.w3.org/TR/2001/REC-SVG-20010904/DTD/svg10.dtd">
<svg version="1.0" xmlns="http://www.w3.org/2000/svg"
 width="1351.000000pt" height="1351.000000pt" viewBox="0 0 1351.000000 1351.000000"
 preserveAspectRatio="xMidYMid meet">
<metadata>
Created by potrace 1.14, written by Peter Selinger 2001-2017
</metadata>
<g transform="translate(0.000000,1351.000000) scale(0.100000,-0.100000)"
fill="#000000" stroke="none">
<path d="M6509 13496 c-2 -2 -46 -7 -96 -10 -51 -4 -103 -9 -115 -11 -13 -2
-72 -11 -133 -21 -60 -9 -117 -18 -125 -19 -61 -13 -215 -49 -260 -61 -76 -21
-353 -115 -365 -124 -5 -3 -32 -15 -60 -25 -131 -47 -458 -222 -630 -338 -262
-176 -562 -449 -760 -691 -22 -27 -45 -54 -50 -60 -6 -6 -50 -65 -97 -131
-253 -352 -450 -766 -553 -1163 -13 -51 -27 -97 -30 -102 -3 -6 -2 -10 3 -10
5 0 37 36 71 80 97 125 94 124 588 36 139 -25 270 -48 291 -51 21 -3 47 -7 57
-9 81 -15 167 -27 169 -25 2 2 49 60 105 129 162 197 207 209 369 100 100 -68
153 -116 188 -171 27 -44 31 -103 9 -133 -30 -39 -14 -50 85 -62 35 -4 36 -3
145 140 61 79 122 151 137 160 70 43 145 25 257 -62 47 -36 88 -69 91 -72 3
-3 17 -13 32 -23 56 -35 77 -132 47 -211 -10 -28 -17 -51 -15 -53 1 -2 27 -7
57 -13 30 -5 68 -12 84 -15 34 -6 63 -11 195 -31 93 -15 125 -20 165 -28 11
-2 42 -7 68 -10 27 -4 59 -9 70 -12 12 -2 42 -7 67 -10 25 -3 48 -8 51 -10 4
-2 35 -6 70 -10 l64 -5 35 53 c63 95 341 471 442 598 115 145 248 310 268 334
214 252 476 523 626 647 209 173 473 314 649 345 138 24 206 24 294 -2 114
-32 151 -77 185 -221 27 -116 11 -330 -34 -478 -5 -16 -11 -42 -14 -57 -3 -15
-9 -42 -15 -60 -6 -18 -27 -85 -47 -148 -39 -126 -39 -125 -114 -285 -79 -169
-146 -272 -325 -500 -69 -88 -133 -169 -143 -180 -9 -11 -29 -37 -44 -57 -15
-20 -33 -42 -40 -50 -7 -7 -40 -47 -73 -88 -33 -41 -67 -84 -77 -95 -9 -11
-73 -90 -143 -175 -69 -85 -134 -164 -143 -175 -23 -27 -103 -125 -122 -148
-8 -11 -30 -35 -47 -56 -18 -20 -35 -43 -38 -52 -5 -14 58 -175 125 -324 10
-22 64 -148 120 -280 56 -132 105 -244 110 -248 4 -4 14 3 24 17 42 66 158 73
264 16 127 -68 213 -181 214 -283 0 -45 -6 -58 -53 -126 -58 -85 -160 -214
-171 -219 -13 -6 -9 -22 18 -83 l26 -58 30 29 c77 77 195 44 348 -98 135 -124
133 -229 -7 -378 -61 -64 -92 -103 -105 -130 -9 -19 38 -135 167 -419 7 -16
30 -68 50 -115 21 -47 40 -88 44 -92 4 -5 22 18 40 50 87 148 301 524 301 527
0 2 15 30 34 62 73 128 279 530 381 748 289 615 470 1161 521 1570 12 104 13
483 0 560 -3 17 -8 55 -11 85 -3 30 -8 75 -11 100 -4 36 -50 269 -69 352 -58
254 -198 611 -343 873 -259 469 -662 914 -1102 1217 -486 335 -1034 543 -1615
613 -27 3 -66 8 -85 11 -40 6 -565 15 -571 10z"/>
<path d="M3147 10138 c-6 -74 -1 -444 6 -474 3 -12 8 -45 12 -75 4 -30 8 -56
10 -59 2 -3 6 -27 9 -54 10 -72 87 -370 134 -516 77 -237 188 -526 300 -775
27 -60 62 -139 77 -175 16 -36 108 -222 205 -415 l175 -350 80 1 c44 1 140 3
213 5 l133 4 132 213 c73 117 155 249 182 293 28 43 68 107 89 141 54 87 397
602 441 663 19 28 43 61 52 75 53 79 174 229 237 292 16 16 27 30 25 32 -45
40 -547 414 -606 451 -45 29 -147 78 -225 109 -79 32 -156 64 -173 71 -16 7
-66 28 -110 45 -44 17 -105 42 -135 55 -30 12 -91 37 -135 55 -44 18 -89 36
-100 41 -11 4 -60 25 -110 45 -49 20 -103 42 -120 49 -16 7 -124 51 -240 98
-115 47 -262 107 -325 133 -131 53 -212 84 -221 84 -4 0 -9 -28 -12 -62z"/>
<path d="M6605 7969 c-60 -72 -117 -138 -125 -147 -8 -10 -39 -46 -69 -82 -30
-36 -61 -72 -70 -80 -9 -9 -38 -42 -66 -75 -45 -53 -229 -263 -338 -385 -230
-258 -404 -440 -517 -544 -36 -33 -64 -64 -62 -70 2 -5 7 -30 12 -55 5 -25 12
-57 15 -71 3 -14 8 -38 11 -55 3 -16 14 -72 25 -124 11 -51 22 -101 24 -110 2
-9 15 -72 29 -141 14 -69 28 -134 30 -145 8 -42 68 -324 87 -410 11 -49 22
-103 25 -120 3 -16 11 -53 18 -81 7 -27 13 -76 13 -107 1 -61 -13 -87 -116
-217 l-41 -51 122 -182 c246 -366 372 -547 662 -955 100 -140 186 -261 191
-270 6 -8 16 -23 22 -31 7 -9 48 -64 92 -124 l79 -107 91 117 c49 65 94 123
98 128 5 6 33 44 63 85 30 41 61 82 67 90 17 20 234 313 253 340 8 12 29 41
46 64 281 376 916 1297 1203 1744 l92 144 -28 36 c-15 20 -32 44 -38 53 -36
60 -261 370 -650 894 -78 105 -221 298 -319 430 -98 132 -197 259 -220 283
-22 24 -90 80 -151 125 -60 45 -112 84 -115 87 -3 3 -54 44 -115 90 -60 46
-112 87 -115 90 -15 16 -90 70 -97 69 -4 0 -57 -59 -118 -130z"/>
<path d="M6287 1595 c-67 -23 -108 -79 -112 -153 -7 -122 107 -206 234 -172
125 34 169 184 82 284 -40 46 -135 65 -204 41z"/>
<path d="M7225 1559 c-248 -43 -405 -169 -444 -357 -48 -232 89 -425 375 -527
130 -47 229 -101 257 -143 53 -75 32 -160 -51 -209 -43 -26 -57 -28 -157 -30
-120 -2 -218 17 -322 63 -31 13 -57 23 -59 22 -2 -3 -61 -231 -69 -269 -2 -11
12 -22 48 -37 133 -53 244 -71 412 -67 131 2 175 10 275 46 215 79 333 275
298 497 -27 172 -143 287 -385 380 -195 75 -265 123 -277 187 -13 68 36 133
118 157 90 26 293 1 387 -47 28 -15 28 -15 38 22 6 21 22 81 36 133 14 52 25
100 25 107 0 16 -128 56 -220 70 -60 8 -239 9 -285 2z"/>
<path d="M2805 1540 c-1 -3 -2 -68 -1 -145 l1 -140 203 0 202 0 0 -611 c0
-481 3 -613 13 -616 6 -2 84 -4 172 -4 l160 1 5 615 5 615 203 0 202 0 1 45
c1 52 1 159 0 210 l-1 35 -581 0 c-319 0 -582 -2 -584 -5z"/>
<path d="M8349 1436 c-3 -3 -20 -8 -38 -11 -19 -3 -38 -8 -41 -10 -4 -3 -23
-7 -41 -10 -19 -3 -65 -13 -104 -23 l-70 -17 -3 -117 c-3 -133 7 -122 -98
-119 l-52 1 2 -127 1 -128 68 -2 c38 0 70 -3 72 -5 3 -2 5 -125 6 -274 1 -282
10 -357 47 -430 61 -117 169 -166 346 -160 106 4 152 12 174 29 14 11 13 269
-1 260 -18 -11 -127 -9 -156 3 -61 26 -66 51 -66 328 l0 250 120 0 120 1 0
125 0 125 -120 1 -120 1 -3 156 c-2 144 -4 157 -21 157 -10 0 -20 -2 -22 -4z"/>
<path d="M5890 1148 c-95 -16 -188 -87 -229 -174 -12 -25 -24 -45 -25 -43 -4
4 -15 129 -16 171 l0 27 -147 -2 -148 -2 2 -75 c1 -41 2 -289 2 -550 l1 -475
173 0 174 0 0 315 c1 274 3 321 18 358 22 54 82 106 143 123 44 13 145 14 164
3 9 -6 10 16 9 195 -1 68 -3 126 -5 129 -8 7 -72 7 -116 0z"/>
<path d="M9160 1148 c-97 -10 -191 -33 -262 -65 -61 -27 -64 -32 -49 -79 5
-16 19 -62 31 -102 15 -51 25 -70 33 -64 16 12 115 53 141 58 66 13 86 16 132
19 102 6 185 -31 210 -95 20 -49 9 -60 -59 -61 -34 0 -71 -2 -82 -4 -11 -2
-42 -7 -70 -10 -65 -9 -187 -49 -239 -81 -120 -72 -184 -180 -186 -314 -2 -72
5 -104 36 -167 59 -123 200 -192 363 -179 101 8 215 59 257 115 14 18 23 5 32
-51 l8 -43 144 -1 c148 0 174 2 165 16 -10 16 -15 162 -17 435 -1 301 -8 364
-52 456 -80 168 -269 245 -536 217z m251 -607 c4 0 5 -39 4 -85 -3 -99 -23
-141 -86 -183 -51 -34 -136 -37 -177 -6 -55 40 -70 116 -34 177 37 64 198 118
293 97z"/>
<path d="M10578 1149 c-96 -15 -195 -92 -238 -185 -10 -20 -19 -33 -22 -28 -2
5 -6 47 -7 94 -2 47 -5 88 -7 91 -2 3 -68 6 -147 6 l-144 0 1 -548 c1 -358 4
-549 11 -550 51 -7 335 -2 336 6 0 6 1 134 1 285 0 303 6 367 43 420 45 65
148 104 239 90 26 -4 48 -4 50 -1 2 3 3 77 3 164 0 153 0 157 -21 158 -11 0
-28 2 -36 3 -8 1 -36 -1 -62 -5z"/>
<path d="M4025 1122 c-12 -8 -13 -705 -2 -757 4 -16 9 -45 12 -62 15 -90 79
-195 145 -239 70 -46 134 -62 240 -59 135 3 206 35 295 132 l40 44 3 -53 c2
-29 5 -62 7 -73 2 -11 4 -22 4 -25 1 -3 68 -5 150 -5 l150 0 -4 115 c-2 63 -4
311 -4 551 l-1 436 -172 -1 -173 -1 -1 -350 c-1 -216 -5 -360 -12 -376 -17
-41 -62 -89 -99 -104 -70 -30 -153 -11 -190 41 -43 63 -46 85 -49 429 -1 182
-3 337 -3 346 -1 13 -24 16 -163 17 -90 1 -168 -2 -173 -6z"/>
<path d="M6186 1123 c-3 -4 -6 -252 -6 -552 l0 -546 173 0 174 0 0 551 1 551
-168 1 c-92 0 -171 -2 -174 -5z"/>
</g>
</svg>
